<svg width="13" height="16" viewBox="0 0 13 16" fill="none" xmlns="http://www.w3.org/2000/svg">
    <path d="M11.1107 1.91693H8.62018C8.49594 0.839618 7.57935 0 6.46923 0C5.35915 0 4.44269 0.839585 4.31845 1.91693H1.82778C0.819884 1.91693 0 2.73705 0 3.74492V3.83871C0 4.60891 0.479573 5.26814 1.15515 5.53675V14.172C1.15515 15.1799 1.97514 16 2.98297 16H9.95555C10.9634 16 11.7833 15.1799 11.7833 14.172V5.53678C12.4589 5.26814 12.9385 4.60891 12.9385 3.83874V3.74495C12.9385 2.73705 12.1185 1.91693 11.1107 1.91693ZM6.46923 0.866913C7.1006 0.866913 7.6276 1.31946 7.74421 1.91693H5.19448C5.31106 1.31942 5.83809 0.866913 6.46923 0.866913ZM10.9164 14.172C10.9164 14.7019 10.4853 15.1331 9.95552 15.1331H2.98294C2.45319 15.1331 2.02203 14.7019 2.02203 14.172V5.66669H10.9164V14.172ZM12.0716 3.83871C12.0716 4.36863 11.6404 4.79981 11.1107 4.79981H1.82778C1.29803 4.79981 0.86688 4.36863 0.86688 3.83871V3.74492C0.86688 3.215 1.29803 2.78381 1.82778 2.78381H11.1107C11.6405 2.78381 12.0716 3.215 12.0716 3.74492V3.83871H12.0716Z"
          fill="#2F4058"/>
    <path d="M4.14535 14.0244C4.38474 14.0244 4.57879 13.8303 4.57879 13.591V8.71057C4.57879 8.47125 4.38471 8.2771 4.14535 8.2771C3.906 8.2771 3.71191 8.47125 3.71191 8.71057V13.591C3.71188 13.8304 3.90597 14.0244 4.14535 14.0244Z"
          fill="#2F4058"/>
    <path d="M6.46933 14.0244C6.70872 14.0244 6.9028 13.8303 6.9028 13.591V8.71057C6.9028 8.47125 6.70865 8.2771 6.46933 8.2771C6.22997 8.2771 6.03589 8.47125 6.03589 8.71057V13.591C6.03589 13.8304 6.22994 14.0244 6.46933 14.0244Z"
          fill="#2F4058"/>
    <path d="M8.79309 14.0244C9.03245 14.0244 9.2265 13.8303 9.2265 13.591V8.71057C9.2265 8.47125 9.03241 8.2771 8.79309 8.2771C8.55367 8.2771 8.35962 8.47125 8.35962 8.71057V13.591C8.35959 13.8304 8.55374 14.0244 8.79309 14.0244Z"
          fill="#2F4058"/>
</svg>
