<svg width="17" height="16" viewBox="0 0 17 16" fill="none" xmlns="http://www.w3.org/2000/svg">
    <path fill-rule="evenodd" clip-rule="evenodd"
          d="M1.00516 9.97412C1.22887 9.97412 1.41022 10.1602 1.41022 10.3897V13.5066C1.41022 14.4246 2.13564 15.1689 3.03048 15.1689H14.1697C15.0646 15.1689 15.79 14.4246 15.79 13.5066V10.3897C15.79 10.1602 15.9713 9.97412 16.195 9.97412C16.4187 9.97412 16.6001 10.1602 16.6001 10.3897V13.5066C16.6001 14.8837 15.512 16.0001 14.1697 16.0001H3.03048C1.68822 16.0001 0.600098 14.8837 0.600098 13.5066V10.3897C0.600098 10.1602 0.781451 9.97412 1.00516 9.97412Z"
          fill="#2F4058"/>
    <path fill-rule="evenodd" clip-rule="evenodd"
          d="M11.4646 8.03866L8.8868 10.6834C8.72862 10.8457 8.47215 10.8457 8.31396 10.6834L5.73615 8.03866C5.57796 7.87636 5.57796 7.61323 5.73615 7.45094C5.89434 7.28864 6.15081 7.28864 6.309 7.45094L8.19532 9.38624V0.405063C8.19532 0.181353 8.37667 0 8.60038 0V0C8.82409 0 9.00545 0.181354 9.00545 0.405064V9.38624L10.8918 7.45094C11.05 7.28864 11.3064 7.28864 11.4646 7.45094C11.6228 7.61323 11.6228 7.87636 11.4646 8.03866Z"
          fill="#2F4058"/>
</svg>
