<svg width="16" height="16" viewBox="0 0 16 16" fill="none" xmlns="http://www.w3.org/2000/svg">
    <path fill-rule="evenodd" clip-rule="evenodd"
          d="M12.9497 12.9497C15.6834 10.2161 15.6834 5.78392 12.9497 3.05025C10.2161 0.316583 5.78392 0.316582 3.05025 3.05025C0.316583 5.78392 0.316583 10.2161 3.05025 12.9497C5.78392 15.6834 10.2161 15.6834 12.9497 12.9497ZM13.6569 13.6569C16.781 10.5327 16.781 5.46734 13.6569 2.34315C10.5327 -0.781049 5.46734 -0.781049 2.34315 2.34315C-0.781049 5.46734 -0.781049 10.5327 2.34315 13.6569C5.46734 16.781 10.5327 16.781 13.6569 13.6569Z"
          fill="#2F4058"/>
    <path fill-rule="evenodd" clip-rule="evenodd"
          d="M12.9497 13.6569L2.34315 3.05025L3.05025 2.34315L13.6569 12.9497L12.9497 13.6569Z" fill="#2F4058"/>
</svg>
