<svg width="17" height="17" viewBox="0 0 17 17" fill="none" xmlns="http://www.w3.org/2000/svg">
    <path fill-rule="evenodd" clip-rule="evenodd"
          d="M16.7304 9.99715L16.7305 9.9972C16.823 10.1237 16.8231 10.2957 16.7305 10.4225C16.6593 10.5197 15.7279 11.7769 14.2443 13.0079C12.7572 14.2418 10.742 15.4274 8.49987 15.4274C6.25772 15.4274 4.24249 14.2418 2.75536 13.0079C1.27178 11.7769 0.340306 10.5197 0.269349 10.4225C0.176837 10.2957 0.176819 10.1238 0.269295 9.99694C0.340307 9.89978 1.27179 8.64262 2.75535 7.41164C4.24249 6.17769 6.25772 4.99219 8.49987 4.99219C10.742 4.99219 12.7572 6.17769 14.2443 7.41166C15.7279 8.64266 16.6593 9.89988 16.7304 9.99715ZM1.11984 10.0823L1.0152 10.2095L1.11997 10.3366C1.56179 10.8725 2.52886 11.9603 3.81874 12.9157C5.10588 13.869 6.73603 14.7065 8.49987 14.7065C10.2673 14.7065 11.8977 13.8695 13.1842 12.9164C14.4733 11.9613 15.4386 10.8736 15.8799 10.3372L15.9845 10.21L15.8798 10.0829C15.4378 9.54674 14.4706 8.45895 13.1808 7.50367C11.8937 6.55041 10.2636 5.71306 8.49987 5.71306C6.73246 5.71306 5.10204 6.55005 3.81555 7.50317C2.52639 8.45827 1.56111 9.54591 1.11984 10.0823Z"
          fill="#2F4058"/>
    <path fill-rule="evenodd" clip-rule="evenodd"
          d="M5.3374 10.2105C5.3374 8.46683 6.75638 7.04785 8.50005 7.04785C10.2437 7.04785 11.6627 8.46683 11.6627 10.2105C11.6627 11.9542 10.2437 13.3732 8.50005 13.3732C6.75638 13.3732 5.3374 11.9542 5.3374 10.2105ZM6.05831 10.2105C6.05831 11.5571 7.15344 12.6523 8.50005 12.6523C9.84666 12.6523 10.9418 11.5571 10.9418 10.2105C10.9418 8.86393 9.84662 7.76876 8.50005 7.76876C7.15347 7.76876 6.05831 8.86393 6.05831 10.2105Z"
          fill="#2F4058"/>
    <line x1="8.6624" y1="3.65703" x2="8.6624" y2="1.87212" stroke="#2F4058" stroke-width="0.6" stroke-linecap="round"/>
    <line x1="12.1128" y1="4.42457" x2="12.5748" y2="2.70048" stroke="#2F4058" stroke-width="0.6"
          stroke-linecap="round"/>
    <line x1="0.3" y1="-0.3" x2="2.08491" y2="-0.3"
          transform="matrix(-0.258819 -0.965926 -0.965926 0.258819 4.7312 4.79199)" stroke="#2F4058" stroke-width="0.6"
          stroke-linecap="round"/>
    <line x1="0.3" y1="-0.3" x2="2.08491" y2="-0.3"
          transform="matrix(-0.707107 -0.707107 -0.707107 0.707107 2.03589 6.36133)" stroke="#2F4058" stroke-width="0.6"
          stroke-linecap="round"/>
    <line x1="15.0466" y1="5.85015" x2="16.3088" y2="4.58803" stroke="#2F4058" stroke-width="0.6"
          stroke-linecap="round"/>
</svg>
