<?xml version="1.0" encoding="UTF-8"?>
<svg xmlns="http://www.w3.org/2000/svg" width="15pt" height="15pt"
     viewBox="0 0 15 15" version="1.1">
    <g id="surface1">
        <path style=" stroke:none;fill-rule:nonzero;fill:rgb(0%,0%,0%);fill-opacity:1;"
              d="M 12.804688 2.195312 C 9.882812 -0.730469 5.121094 -0.730469 2.195312 2.195312 C 0.78125 3.613281 0 5.496094 0 7.5 C 0 9.503906 0.78125 11.386719 2.195312 12.804688 C 3.660156 14.265625 5.582031 14.996094 7.5 14.996094 C 9.421875 14.996094 11.34375 14.265625 12.804688 12.804688 C 15.730469 9.878906 15.730469 5.121094 12.804688 2.195312 Z M 11.984375 11.984375 C 9.511719 14.453125 5.492188 14.453125 3.019531 11.984375 C 1.820312 10.785156 1.164062 9.195312 1.164062 7.5 C 1.164062 5.808594 1.820312 4.214844 3.019531 3.015625 C 5.492188 0.546875 9.511719 0.546875 11.984375 3.015625 C 14.457031 5.488281 14.457031 9.511719 11.984375 11.984375 Z M 11.984375 11.984375 "/>
        <path style=" stroke:none;fill-rule:nonzero;fill:rgb(0%,0%,0%);fill-opacity:1;"
              d="M 10.003906 9.105469 L 8.359375 7.464844 L 10.003906 5.820312 C 10.230469 5.59375 10.230469 5.226562 10.007812 5 C 9.777344 4.769531 9.410156 4.773438 9.183594 5 L 7.539062 6.640625 L 5.890625 5 C 5.664062 4.773438 5.296875 4.769531 5.070312 5 C 4.84375 5.226562 4.84375 5.59375 5.070312 5.820312 L 6.714844 7.464844 L 5.070312 9.105469 C 4.84375 9.332031 4.84375 9.699219 5.070312 9.929688 C 5.183594 10.042969 5.332031 10.097656 5.480469 10.097656 C 5.628906 10.097656 5.777344 10.042969 5.890625 9.929688 L 7.539062 8.285156 L 9.183594 9.929688 C 9.296875 10.042969 9.445312 10.097656 9.59375 10.097656 C 9.742188 10.097656 9.894531 10.042969 10.007812 9.929688 C 10.234375 9.699219 10.234375 9.332031 10.003906 9.105469 Z M 10.003906 9.105469 "/>
    </g>
</svg>
