<?xml version="1.0" encoding="UTF-8"?>
<svg xmlns="http://www.w3.org/2000/svg" width="15pt" height="15pt"
     viewBox="0 0 15 15" version="1.1">
    <g id="surface1">
        <path style=" stroke:none;fill-rule:nonzero;fill:rgb(0%,0%,0%);fill-opacity:1;"
              d="M 7.5 0 C 3.351562 0 0 3.347656 0 7.5 C 0 11.652344 3.347656 15 7.5 15 C 11.652344 15 15 11.652344 15 7.5 C 15 3.347656 11.648438 0 7.5 0 Z M 7.5 13.996094 C 3.902344 13.996094 1.003906 11.097656 1.003906 7.5 C 1.003906 3.902344 3.902344 1.003906 7.5 1.003906 C 11.097656 1.003906 13.996094 3.902344 13.996094 7.5 C 13.996094 11.097656 11.097656 13.996094 7.5 13.996094 Z M 7.5 13.996094 "/>
        <path style=" stroke:none;fill-rule:nonzero;fill:rgb(0%,0%,0%);fill-opacity:1;"
              d="M 11.097656 5.300781 C 10.902344 5.101562 10.601562 5.101562 10.398438 5.300781 L 6.550781 9.148438 L 4.601562 7.199219 C 4.402344 7 4.101562 7 3.902344 7.199219 C 3.703125 7.398438 3.703125 7.699219 3.902344 7.898438 L 6.199219 10.199219 C 6.300781 10.296875 6.398438 10.347656 6.550781 10.347656 C 6.699219 10.347656 6.800781 10.296875 6.902344 10.199219 L 11.097656 6 C 11.296875 5.804688 11.296875 5.503906 11.097656 5.300781 Z M 11.097656 5.300781 "/>
    </g>
</svg>
