<svg width="17" height="17" viewBox="0 0 17 17" fill="none" xmlns="http://www.w3.org/2000/svg">
    <path fill-rule="evenodd" clip-rule="evenodd"
          d="M8.13561 1.03333C8.13561 0.738781 8.37439 0.5 8.66895 0.5C13.0872 0.5 16.6689 4.08172 16.6689 8.5C16.6689 12.9183 13.0872 16.5 8.66895 16.5C4.25067 16.5 0.668945 12.9183 0.668945 8.5C0.668945 6.63194 1.30988 4.91209 2.38347 3.55048C2.56584 3.31918 2.90119 3.27951 3.1325 3.46189C3.3638 3.64426 3.40346 3.97961 3.22109 4.21091C2.29056 5.39109 1.73561 6.88 1.73561 8.5C1.73561 12.3292 4.83977 15.4333 8.66895 15.4333C12.4981 15.4333 15.6023 12.3292 15.6023 8.5C15.6023 4.67083 12.4981 1.56667 8.66895 1.56667C8.37439 1.56667 8.13561 1.32789 8.13561 1.03333Z"
          fill="#2F4058"/>
    <path fill-rule="evenodd" clip-rule="evenodd"
          d="M4.06956 2.86191C4.1146 3.20259 3.87495 3.51528 3.53427 3.56033L1.06686 3.88659C0.726181 3.93164 0.413488 3.69199 0.368439 3.35131C0.323391 3.01063 0.563047 2.69794 0.903726 2.65289L3.37114 2.32662C3.71182 2.28157 4.02451 2.52123 4.06956 2.86191Z"
          fill="#2F4058"/>
    <path fill-rule="evenodd" clip-rule="evenodd"
          d="M3.37118 2.32693C3.71186 2.28188 4.02456 2.52154 4.0696 2.86221L4.39587 5.32963C4.44092 5.6703 4.20126 5.983 3.86059 6.02804C3.51991 6.07309 3.20721 5.83344 3.16217 5.49276L2.8359 3.02535C2.79085 2.68467 3.03051 2.37198 3.37118 2.32693Z"
          fill="#2F4058"/>
</svg>
