<svg width="17" height="16" viewBox="0 0 17 16" fill="none" xmlns="http://www.w3.org/2000/svg">
    <path d="M14.842 10.0409C14.6207 10.0409 14.4415 10.2202 14.4415 10.4414V13.9973C14.4407 14.6606 13.9033 15.1982 13.24 15.1988H2.00248C1.33916 15.1982 0.801773 14.6606 0.800991 13.9973V3.56083C0.801773 2.89766 1.33916 2.36012 2.00248 2.35934H5.55844C5.77965 2.35934 5.95893 2.18006 5.95893 1.95884C5.95893 1.73779 5.77965 1.55835 5.55844 1.55835H2.00248C0.897047 1.5596 0.00125155 2.4554 0 3.56083V13.9975C0.00125155 15.1029 0.897047 15.9987 2.00248 16H13.24C14.3454 15.9987 15.2412 15.1029 15.2424 13.9975V10.4414C15.2424 10.2202 15.0632 10.0409 14.842 10.0409V10.0409Z"
          fill="#2F4058"/>
    <path d="M15.0839 0.52788C14.38 -0.17596 13.2389 -0.17596 12.5351 0.52788L5.39001 7.67297C5.34104 7.72194 5.30568 7.78264 5.28722 7.84928L4.34762 11.2414C4.30898 11.3805 4.34825 11.5295 4.45025 11.6316C4.55241 11.7336 4.70134 11.7729 4.84042 11.7344L8.23258 10.7946C8.29923 10.7762 8.35993 10.7408 8.4089 10.6919L15.5538 3.54661C16.2566 2.84231 16.2566 1.70214 15.5538 0.997836L15.0839 0.52788ZM6.26265 7.93329L12.1103 2.08543L13.9963 3.97136L8.14842 9.81922L6.26265 7.93329ZM5.88593 8.68923L7.39264 10.1961L5.3085 10.7735L5.88593 8.68923ZM14.9875 2.98029L14.5628 3.40503L12.6767 1.51895L13.1016 1.09421C13.4925 0.703253 14.1264 0.703253 14.5174 1.09421L14.9875 1.56416C15.3778 1.95558 15.3778 2.58902 14.9875 2.98029V2.98029Z"
          fill="#2F4058"/>
</svg>
