<svg id="Layer_3" height="512" viewBox="0 0 64 64" width="512" xmlns="http://www.w3.org/2000/svg" data-name="Layer 3">
    <path d="m2 2h40v60h-40z" fill="#e5e5e5"/>
    <circle cx="36" cy="36" fill="#5e87ca" r="15"/>
    <circle cx="36" cy="36" fill="#e2e7f6" r="11"/>
    <path d="m55 49-6 6 5.757 5.757a4.243 4.243 0 0 0 3 1.243 4.242 4.242 0 0 0 4.243-4.243 4.243 4.243 0 0 0 -1.243-3z"
          fill="#3b5892"/>
    <path d="m55 49-4 4 3.757 3.757a4.222 4.222 0 0 0 6.72-1 4.233 4.233 0 0 0 -.72-1z" fill="#4c6cb5"/>
    <path d="m54 50-5.583-5.583a15.069 15.069 0 0 1 -4 4l5.583 5.583z" fill="#f0ae42"/>
    <path d="" fill="#f9d266"/>
    <path d="m46.083 47.083 3.21 3.21a1 1 0 0 0 1.414 0l1.793-1.793-4.083-4.083a15.051 15.051 0 0 1 -2.334 2.666z"
          fill="#f9d266"/>
    <path d="m42 45.221a11 11 0 0 0 0-18.442z" fill="#f2f2f2"/>
    <path d="m35 21.033v-8.033h-6v9.73a14.909 14.909 0 0 1 6-1.7z" fill="#4d8c28"/>
    <path d="m29 44.486v-16.972a10.951 10.951 0 0 1 6-2.469v21.91a10.951 10.951 0 0 1 -6-2.469z" fill="#4d8c28"/>
    <path d="m24 45a15.006 15.006 0 0 1 0-18v-8h-6v26z" fill="#6bc13b"/>
    <path d="m28.512 49h-22.512v-4h18a15.079 15.079 0 0 0 4.513 4z" fill="#3b5892"/>
    <path d="m8 45v-18h6v18" fill="#7bdf45"/>
    <path d="m11 40v-13h-3v15h1a2 2 0 0 0 2-2z" fill="#8fed58"/>
    <g fill="#b5b5b5">
        <path d="m7 7h8v2h-8z"/>
        <path d="m5 11h10v2h-10z"/>
        <path d="m5 15h10v2h-10z"/>
        <path d="m21 57h14v2h-14z"/>
        <path d="m37 57h2v2h-2z"/>
        <path d="m21 53h14v2h-14z"/>
        <path d="m37 53h2v2h-2z"/>
    </g>
    <path d="m32 42v-16.243a11.006 11.006 0 0 0 -3 1.757v15.486h2a1 1 0 0 0 1-1z" fill="#559b2d"/>
    <path d="m32 13h-3v9.73a14.9 14.9 0 0 1 3-1.184z" fill="#559b2d"/>
    <path d="m18 19v23h1a2 2 0 0 0 2-2v-21z" fill="#7bdf45"/>
</svg>
