<svg id="Capa_1" enable-background="new 0 0 512.194 512.194" height="512" viewBox="0 0 512.194 512.194" width="512"
     xmlns="http://www.w3.org/2000/svg">
    <g>
        <g>
            <g>
                <path d="m451.615 225.844c-1.978 0-3.954-.754-5.463-2.263l-22.125-22.125c-3.017-3.017-3.017-7.909 0-10.926 3.019-3.018 7.91-3.017 10.927 0l22.125 22.125c3.017 3.017 3.017 7.909 0 10.926-1.51 1.508-3.487 2.263-5.464 2.263z"
                      fill="#aea7af"/>
            </g>
        </g>
        <path d="m376.975 466.515h-369.975c-3.866 0-7-3.134-7-7v-369.975c0-3.866 3.134-7 7-7h145.248l39.74 10 39.74-10h145.248c3.866 0 7 3.134 7 7v369.975c-.001 3.866-3.135 7-7.001 7z"
              fill="#edba94"/>
        <path d="m0 89.54v369.975c0 3.866 3.134 7 7 7h13.602v-383.975h-13.602c-3.866 0-7 3.134-7 7z" fill="#e5a87f"/>
        <path d="m221.808 183.962-26.902-12.342c-1.853-.85-3.985-.85-5.838 0l-26.902 12.342c-4.637 2.127-9.919-1.261-9.919-6.362v-95.06h79.479v95.06c.001 5.101-5.281 8.489-9.918 6.362z"
              fill="#fd6930"/>
        <path d="m108.95 353.909-23.946-23.946c-2.734-2.734-7.166-2.734-9.899 0l-23.946 23.946c-4.41 4.41-1.287 11.95 4.95 11.95h.947c3.866 0 7 3.134 7 7v55.367c0 3.866 3.134 7 7 7h17.998c3.866 0 7-3.134 7-7v-55.367c0-3.866 3.134-7 7-7h.946c6.236 0 9.36-7.54 4.95-11.95z"
              fill="#f1f6f7"/>
        <path d="m344.977 435.226h-81.994c-3.866 0-7-3.134-7-7v-18.707c0-3.866 3.134-7 7-7h81.994c3.866 0 7 3.134 7 7v18.707c0 3.866-3.134 7-7 7z"
              fill="#e5a87f"/>
        <g>
            <g>
                <path d="m351.978 378.234h-95.995c-4.267 0-7.726-3.459-7.726-7.726s3.459-7.726 7.726-7.726h95.995c4.267 0 7.726 3.459 7.726 7.726s-3.459 7.726-7.726 7.726z"
                      fill="#e5a87f"/>
            </g>
        </g>
        <path d="m376.975 82.54h-104.962c-8.386 15.549-12.838 33.028-12.838 51.191 0 28.862 11.239 55.996 31.647 76.404 20.409 20.409 47.543 31.648 76.405 31.648 5.662 0 11.257-.433 16.748-1.282v-150.961c0-3.866-3.134-7-7-7z"
              fill="#e5a87f"/>
        <circle cx="367.228" cy="133.731" fill="#897e8b" r="88.052"/>
        <path d="m319.965 195.993c-34.386-34.386-34.386-90.138 0-124.525 15.284-15.284 34.789-23.774 54.762-25.472-24.964-2.121-50.66 6.369-69.762 25.472-34.386 34.386-34.386 90.138 0 124.525 19.103 19.103 44.798 27.593 69.762 25.472-19.973-1.698-39.478-10.188-54.762-25.472z"
              fill="#7d717f"/>
        <circle cx="367.228" cy="133.731" fill="#f1f6f7" r="56.536"/>
        <path d="m342.251 173.708c-22.079-22.079-22.079-57.875 0-79.954 9.127-9.127 20.599-14.481 32.477-16.062-16.854-2.243-34.526 3.111-47.477 16.062-22.079 22.079-22.079 57.875 0 79.954 12.951 12.951 30.623 18.305 47.477 16.062-11.878-1.581-23.35-6.935-32.477-16.062z"
              fill="#d2e4e7"/>
        <path d="m507.645 273.486-.662.662c-6.065 6.065-15.899 6.065-21.964 0l-39.767-39.767c-2.734-2.734-2.734-7.166 0-9.9l12.726-12.726c2.734-2.734 7.166-2.734 9.899 0l39.767 39.767c6.066 6.065 6.066 15.899.001 21.964z"
              fill="#685e67"/>
    </g>
</svg>
