<svg id="flat" height="512" viewBox="0 0 128 128" width="512" xmlns="http://www.w3.org/2000/svg">
    <path d="m79.694 85.515-.631-28.378-4.425-5.159-1.372-7.288h-17.882l-1.372 7.288-3.448 5.882-1.445 27.655z"
          fill="#e2b48a"/>
    <path d="m99.133 72.226a15.438 15.438 0 0 0 -8.842-12.777l-8.633-4.044-4.732-2.231-2.515-3.066.145.176s-.724 2.616-1.856 8.782h-17.35a44.514 44.514 0 0 1 -1-8.82l.146-.059-2.951 2.987-13.776 6.275a15.438 15.438 0 0 0 -8.842 12.777l-1.306 16.7h72.818z"
          fill="#dbe2eb"/>
    <g opacity=".2">
        <path d="m54.31 50.343a32.443 32.443 0 0 0 .6 6.558l-5.61 2.622a15.4 15.4 0 0 0 -8.838 12.77l-1.315 16.707h-11.586l1.3-16.7a15.443 15.443 0 0 1 8.852-12.77l13.834-6.349 2.793-3.011z"
              fill="#bac2d3"/>
    </g>
    <path d="m66.528 59.113h-6.721l-1.281 2.985 3.858 4.909-2.243 21.915h4.295 4.812l-2.016-22.116 3.054-5.022z"
          fill="#ef5361"/>
    <path d="m74.18 49.548-9.741 9.518 7.827 5.378a.856.856 0 0 0 1.3-.452l3.357-10.818z" fill="#d1ccec"/>
    <path d="m51.544 53.174 4.066 10.638a.857.857 0 0 0 1.283.4l7.546-5.148-9.939-9.664z" fill="#d1ccec"/>
    <g fill="#f0c191">
        <path d="m79.946 24.169c-1.5-.158-2.95 1.866-3.229 4.521s.714 4.936 2.219 5.094 2.95-1.867 3.229-4.522-.715-4.935-2.219-5.093z"/>
        <path d="m47.288 24.169c1.5-.158 2.95 1.866 3.229 4.521s-.717 4.936-2.217 5.094-2.951-1.867-3.229-4.522.712-4.935 2.217-5.093z"/>
        <path d="m78.631 16.017-3.277-8.5-11.277.755-11.277-.759-4.811 9.833.724 15.6s.81 6.6 4.376 10.564 6.651 6.614 10.988 6.52c4.337.094 7.422-2.551 10.988-6.52s4.376-10.564 4.376-10.564z"/>
    </g>
    <path d="m79.815 8.57c-2.655-8.115-9.228-6.62-9.228-6.62-6.868-5.374-22.987 1.095-24.787 10.45-1.335 6.972.95 15.409 1.99 19.3a.866.866 0 0 0 .841.641c.516 0 .512-.369.452-.881-.943-8.063 2.829-18.337 2.829-18.337 11.744 2.787 17.986-4 17.986-4 7.075 1.382 5.364 6.568 7.553 11.544 1.686 3.831 1.308 8.894 1.045 11.024a.656.656 0 0 0 1.3.192c.809-4.807 2.031-17.167.019-23.313z"
          fill="#384868"/>
    <path d="m96.923 71.978h-65.846a5.862 5.862 0 0 0 -5.957 6.346l2.895 39.461a6.089 6.089 0 0 0 6.2 5.314h59.571a6.089 6.089 0 0 0 6.2-5.314l2.895-39.461a5.862 5.862 0 0 0 -5.958-6.346z"
          fill="#43567c"/>
    <path d="m99.161 123.1h-70.322a2.448 2.448 0 1 0 0 4.9h70.322a2.448 2.448 0 1 0 0-4.9z" fill="#43567c"/>
    <path d="m101.611 125.547a2.452 2.452 0 0 1 -2.4 2.453 2.215 2.215 0 0 0 .183-.916 2.454 2.454 0 0 0 -2.452-2.453h-70.374a2.435 2.435 0 0 1 2.27-1.536h70.321a2.454 2.454 0 0 1 2.452 2.452z"
          fill="#384868"/>
</svg>
