<svg id="Capa_1" enable-background="new 0 0 511.998 511.998" height="512" viewBox="0 0 511.998 511.998" width="512"
     xmlns="http://www.w3.org/2000/svg">
    <linearGradient id="SVGID_1_" gradientUnits="userSpaceOnUse" x1="74.998" x2="74.998" y1="420.999" y2="90.999">
        <stop offset="0" stop-color="#c3ffe8"/>
        <stop offset=".9973" stop-color="#f0fff4"/>
    </linearGradient>
    <linearGradient id="SVGID_2_" gradientUnits="userSpaceOnUse" x1="328.498" x2="328.498" y1="420.999" y2="90.999">
        <stop offset="0" stop-color="#00b59c"/>
        <stop offset="1" stop-color="#9cffac"/>
    </linearGradient>
    <g>
        <path d="m148.225 98.924c-2.607-4.878-7.69-7.925-13.228-7.925h-120c-5.537 0-10.62 3.047-13.228 7.925s-2.314 10.796.747 15.396l57.48 86.221v205.459c0 8.291 6.709 15 15 15s15-6.709 15-15v-205.46l57.48-86.221c3.064-4.599 3.357-10.517.749-15.395z"
              fill="url(#SVGID_1_)"/>
        <g>
            <g>
                <path d="m178.998 330.999h-19c-8.284 0-15 6.716-15 15v60c0 8.284 6.716 15 15 15h19c8.284 0 15-6.716 15-15v-60c0-8.284-6.716-15-15-15zm79-60h-19c-8.284 0-15 6.716-15 15v120c0 8.284 6.716 15 15 15h19c8.284 0 15-6.716 15-15v-120c0-8.284-6.716-15-15-15zm80-60h-20c-8.284 0-15 6.716-15 15v180c0 8.284 6.716 15 15 15h20c8.284 0 15-6.716 15-15v-180c0-8.284-6.716-15-15-15zm79-60h-19c-8.284 0-15 6.716-15 15v240c0 8.284 6.716 15 15 15h19c8.284 0 15-6.716 15-15v-240c0-8.284-6.716-15-15-15zm80-60h-19c-8.284 0-15 6.716-15 15v300c0 8.284 6.716 15 15 15h19c8.284 0 15-6.716 15-15v-300c0-8.284-6.716-15-15-15z"
                      fill="url(#SVGID_2_)"/>
            </g>
        </g>
    </g>
</svg>
